<?xml version="1.0"?>
<svg xmlns="http://www.w3.org/2000/svg" xmlns:xlink="http://www.w3.org/1999/xlink" version="1.1" id="Capa_1" x="0px" y="0px" width="512px" height="512px" viewBox="0 0 121.805 121.805" style="enable-background:new 0 0 121.805 121.805;" xml:space="preserve" class="hovered-paths"><g transform="matrix(1 0 0 1 0 -65)"><g>
	<g>
		<path d="M7.308,85.264h107.188c4.037,0,7.309-3.271,7.309-7.31s-3.271-7.309-7.309-7.309H7.308C3.271,70.646,0,73.916,0,77.954    S3.271,85.264,7.308,85.264z" data-original="#000000" class="active-path" fill="#000000"/>
		<path d="M7.308,51.158h107.188c4.037,0,7.309-3.272,7.309-7.309c0-4.037-3.271-7.308-7.309-7.308H7.308    C3.271,36.541,0,39.812,0,43.849C0,47.886,3.271,51.158,7.308,51.158z" data-original="#000000" class="active-path" fill="#000000"/>
	</g>
</g></g> </svg>
